<?xml version="1.0" standalone="no"?>
<!DOCTYPE svg PUBLIC "-//W3C//DTD SVG 20010904//EN"
 "http://www.w3.org/TR/2001/REC-SVG-20010904/DTD/svg10.dtd">
<svg version="1.0" xmlns="http://www.w3.org/2000/svg"
 width="496.000000pt" height="139.000000pt" viewBox="0 0 496.000000 139.000000"
 preserveAspectRatio="xMidYMid meet">
<metadata>
Created by potrace 1.16, written by Peter Selinger 2001-2019
</metadata>
<g transform="translate(0.000000,139.000000) scale(0.100000,-0.100000)"
fill="#000000" stroke="none">
<path id="Baixo" d="M190 695 l0 -535 740 0 740 0 0 535 0 535 -740 0 -740 0 0 -535z"/>
<path id="Medio" d="M1740 695 l0 -535 740 0 740 0 0 535 0 535 -740 0 -740 0 0 -535z"/>
<path  id="Alto" d="M3280 695 l0 -535 740 0 740 0 0 535 0 535 -740 0 -740 0 0 -535z"/>
</g>
</svg>
